<?xml version="1.0" encoding="utf-8"?>
<!-- Generator: Adobe Illustrator 16.0.4, SVG Export Plug-In . SVG Version: 6.00 Build 0)  -->
<!DOCTYPE svg PUBLIC "-//W3C//DTD SVG 1.1//EN" "http://www.w3.org/Graphics/SVG/1.1/DTD/svg11.dtd">
<svg version="1.1" id="Layer_1" xmlns="http://www.w3.org/2000/svg" xmlns:xlink="http://www.w3.org/1999/xlink" x="0px" y="0px"
	 width="180px" height="40px" viewBox="0 0 180 40" enable-background="new 0 0 180 40" xml:space="preserve">
<text transform="matrix(0.9753 0 0 1 68.915 29.1543)" fill="#726B6A" font-family="'MyriadPro-Regular'" font-size="28.4938">p</text>
<text transform="matrix(0.9753 0 0 1 85.144 29.1543)" fill="#726B6A" font-family="'MyriadPro-Regular'" font-size="28.4938">a</text>
<text transform="matrix(0.9753 0 0 1 101.373 29.1543)" fill="#726B6A" font-family="'MyriadPro-Regular'" font-size="28.4938">x</text>
<text transform="matrix(0.9753 0 0 1 116.1855 29.1543)" fill="#C74E4F" font-family="'MyriadPro-Regular'" font-size="28.4938">d</text>
<text transform="matrix(0.9753 0 0 1 132.9414 29.1543)" fill="#C74E4F" font-family="'MyriadPro-Regular'" font-size="28.4938">b</text>
<polygon fill="#706969" stroke="#706969" stroke-width="2.5" stroke-linecap="round" stroke-linejoin="round" points="
	35.556,36.186 37.983,31.785 40.411,36.186 "/>
<line fill="none" stroke="#706969" stroke-width="3" stroke-linecap="round" x1="62.612" y1="22.523" x2="13.023" y2="34.121"/>
<path fill="none" d="M24.133-17.468"/>
<image overflow="visible" enable-background="new    " width="341" height="397" xlink:href="8796BBA3C21B3D03.png"  transform="matrix(0.0349 0.061 -0.061 0.0349 54.2051 -0.0078)">
</image>
<image overflow="visible" enable-background="new    " width="284" height="341" xlink:href="8796BBA3C21B3D06.png"  transform="matrix(-0.0648 -0.038 0.038 -0.0648 22.0508 37.1895)">
</image>
<text transform="matrix(0.9753 0 0 1 148.9775 18.3369)" fill="#726B6A" font-family="'HelveticaNeue-Bold'" font-size="20">4.1</text>
</svg>
